<?xml version="1.0" encoding="UTF-8"?> <!-- Generator: Adobe Illustrator 23.0.1, SVG Export Plug-In . SVG Version: 6.00 Build 0) --> <svg xmlns="http://www.w3.org/2000/svg" xmlns:xlink="http://www.w3.org/1999/xlink" x="0px" y="0px" viewBox="0 0 512 512" style="enable-background:new 0 0 512 512;" xml:space="preserve"> <style type="text/css"> .st0{fill:#A35D43;} </style> <g id="Слой_2"> </g> <g id="Слой_1"> <g> <path class="st0" d="M353.3,334.3c1.5-0.8,3.4-1,3.7-3.4c0.7-6.6,1.6-13.2,2.5-19.8c0.5-3.8,1.1-7.7,1.6-11.5 c0.4-2.8,0.9-5.6,1.3-8.4c0.4-3.1,0.9-6.2,1.3-9.3c0.5-3.8,0.8-7.6,1.3-11.3c0.2-1.8,0.7-3.6,1.1-5.6c-0.7,0.1-1,0.1-1.2,0.2 c-3.3,1.1-6.6,2.1-9.8,3.3c-1,0.4-2.6,1.2-2.7,2c-0.6,4-0.9,8.1-1.2,12.1c-0.4,4.8-0.9,9.6-1.4,14.4c-0.6,6.1-1.3,12.3-2,18.4 c-0.7,6.7-1.4,13.5-2.1,20.2c0,0.4,0,1.1,0.3,1.3c0.3,0.2,0.9,0,1.3-0.2C349.3,335.9,351.4,335.3,353.3,334.3 M350.5,255.1 c0.7-6.8,1.4-13.6,2.1-20.4c0.2-1.9,0.6-3.8,0.9-5.7c0.1-0.9,0-1.9,0-3c-1,0.4-1.8,0.9-2.7,1.1c-6.2,1.2-12.4,2.4-18.7,3.3 c-1.9,0.3-2.1,1-2.2,2.6c-0.4,6.6-0.8,13.2-1.3,19.8c-0.3,3.8-0.7,7.5-1.2,11.7c1.6-0.4,2.8-0.7,4-0.9c5-0.8,10-1.5,14.9-2.4 c3.9-0.7,3.8-0.8,4.1-4.8C350.4,256,350.5,255.6,350.5,255.1 M343.7,354.9c-0.2,1.4-0.3,2.9-0.5,4.7c4.1-1.5,7.9-3.1,10-6.5 c1.6-2.6,2-6.1,1.5-9.4c-3.1,1-6.1,1.9-9.1,3c-0.6,0.2-1.1,1.2-1.2,1.9C344.1,350.6,343.9,352.8,343.7,354.9 M329.9,340.4 c3.9-0.8,7.8-1.5,11.7-2.3c0.4-0.1,0.9-0.6,0.9-1c0.4-3.8,0.8-7.6,1.1-11.4c0.5-5.6,1-11.3,1.5-16.9c0.6-5.6,1.2-11.1,1.8-16.7 c0.5-5.1,0.9-10.2,1.4-15.3c0.2-2.2,0.5-4.3,0.8-6.5c-7.6,1.3-14.8,2.6-22.3,3.9c-2,22.4-4,45-6.1,67.8c1.1-0.1,2-0.2,2.8-0.4 C325.8,341.3,327.8,340.8,329.9,340.4 M325.5,250c0.4-4.7,0.9-9.5,1.3-14.2c0.1-1.6,0-3.2,0-4.9c-1.7,0.3-3.2,0.6-4.8,0.8 c-7.7,0.7-15.5,1.3-23.2,1.9c-1.1,0.1-1.5,0.6-1.5,1.6c-0.4,10.4-0.7,20.7-1.1,31.2c9.6,0.6,18.6,0.6,27.4-1.8 c0.5-0.1,1.1-1,1.1-1.5C325,258.7,325.2,254.3,325.5,250 M319.9,355.3c-0.1,3.4-0.4,6.7-0.6,10.3c0.4-0.1,1-0.2,1.7-0.3 c2.4-0.5,4.8-1,7.1-1.6c3.6-0.9,7.1-1.8,10.7-2.7c1.2-0.3,1.6-1.1,1.6-2.3c0.1-2.7,0.5-5.3,0.7-8c0.1-1,0-1.9,0-3.1 c-1,0.3-1.8,0.7-2.7,0.8c-5.1,1-10.3,1.9-15.4,2.9C319.9,352.1,320,352.1,319.9,355.3 M316.5,342.6c1.2-0.1,1.6-0.5,1.6-1.7 c0-1.8,0.1-3.7,0.2-5.5c0.6-7,1.4-14,1.9-21c0.6-7.8,1.1-15.6,1.7-23.5c0.4-5.3,0.8-10.7,1.2-16.2c-9.6,0.8-19,1.6-28.3,2.4 c-1.3,22.5-2.6,45-4,67.9c3.7-0.2,7.2-0.4,10.6-0.7C306.5,343.8,311.5,343.1,316.5,342.6 M293.5,265.7c0.1-9.9,0.2-19.9,0.4-29.8 c0-1.6-0.4-2-2-2c-11.4,0.4-22.8,0.6-34.3,0.9v33.5c0.4,0,0.7,0.1,1,0.1c8.2-0.2,16.4-0.5,24.7-0.7c2.9-0.1,5.8-0.2,8.7-0.3 C293.1,267.3,293.5,266.8,293.5,265.7 M290,359.2c0,3.2,0,6.5,0,9.7c1.2,0,2.2,0.1,3.3,0c5.9-0.7,11.8-1.4,17.7-2.1 c0.5-0.1,1,0,1.5-0.1c3.2-0.5,3.2-0.5,3.5-3.8c0-0.2,0.1-0.5,0.2-0.7c0.4-3.2,0.7-6.5,1.1-10.2c-2,0.4-3.4,0.8-4.9,1 c-6.4,0.6-12.9,1.1-19.3,1.6c-2.4,0.2-2.8,0.5-2.8,2.9C290.1,358,290,358.6,290,359.2 M257.5,357.1c0,3,0,5.9,0,8.9v4.1 c2.2,0,4.1,0.1,6,0c7-0.2,14.1-0.5,21.1-0.8c1.3,0,1.9-0.5,2-2c0-3.7,0.4-7.4,0.5-11.1c0-0.4-0.2-0.9-0.3-1.3 c-1.1,0.1-2,0.2-2.9,0.2c-8.3,0.1-16.7,0.3-25,0.4C257.7,355.6,257.5,356.2,257.5,357.1 M257.5,320.8c0,7.7,0,15.5,0,23.2 c0,1.6,0.2,2.6,2.2,2.2c1.3-0.3,2.7-0.1,4.1-0.2c7.4-0.1,14.8-0.3,22.2-0.4c1.1,0,1.9-0.3,1.9-1.6c0.3-7.7,0.7-15.4,1.1-23.1 c0.4-7.8,0.8-15.7,1.2-23.5c0-0.2,0.1-0.4,0.1-0.5c0.2-6.3,0.4-12.7,0.6-19c-11.4,0.3-22.2,0.6-33,0.9c-0.2,3.5-0.4,7.2-0.5,10.8 C257.5,299.9,257.5,310.3,257.5,320.8 M220.2,267.6c11.7,0.4,23.1,0.7,34.7,1.1c0-1,0-1.7,0-2.3c-0.1-3.2-0.4-6.5-0.4-9.7 c0-6.9,0.1-13.7,0-20.6c0-0.5-0.7-1.3-1.1-1.4c-1.3-0.2-2.6,0-3.8,0c-3.8,0-7.7,0-11.5-0.2c-6.4-0.2-12.8-0.5-19.6-0.7 C219.1,245.3,219.6,256.4,220.2,267.6 M224.8,358c0,0.4,0,0.7,0,1.1c0.1,3,0.2,6,0.4,9.1c0,0.4,0.8,1,1.2,1.1c2,0.2,4,0.1,6.1,0.2 c5.7,0.2,11.3,0.4,17,0.6c1.6,0.1,3.2,0,4.9,0v-11.9c0-2.2-0.4-2.6-2.6-2.6c-8-0.1-16.1-0.2-24.1-0.4 C224.6,355.1,224.6,355,224.8,358 M220.9,293.1c0.4,9,1.2,18,1.7,27c0.5,8,0.9,16,1.4,24c0.1,1.1,0.5,1.5,1.6,1.5 c8.9,0.1,17.8,0.2,26.7,0.5c2,0.1,2.2-0.8,2.2-2.4c0-8.8,0-17.5,0-26.3c0-9.8,0-19.7,0-29.5c0-2.9,0-5.9,0-9.1 c-11-0.4-21.9-0.8-33-1.2C221.2,283,220.7,288,220.9,293.1 M221.2,354.8c-9.1-0.9-17.9-1.7-26.6-2.5c0.2,0.7,0.5,1.3,0.5,2 c0.2,3.1,0.3,6.3,0.4,9.4c0.1,1.6,0.7,2.5,2.4,2.7c5.1,0.6,10.1,1.2,15.2,1.8c1.6,0.2,3.2,0.4,4.8,0.6c1.4,0.1,2.8,0.2,4.5,0.4 C222,364,221.6,359.3,221.2,354.8 M191.9,320.4c0.6,6.9,1.4,13.7,2,20.6c0.1,1.2,0.4,1.6,1.6,1.7c4.2,0.4,8.4,1,12.7,1.4 c3.9,0.4,7.8,0.6,11.7,0.8c1.1,0.1,1.4-0.4,1.2-1.5c-0.3-1.4-0.5-2.8-0.6-4.2c-0.2-4.6-0.2-9.1-0.5-13.7 c-0.5-8.8-1.2-17.5-1.8-26.2c-0.4-6.5-0.8-13-1.1-19.5c-0.1-1.5-0.7-1.8-2.1-1.9c-3-0.2-6-0.6-9-1c-5.8-0.8-11.6-1.5-17.7-2.4 c0.2,2.1,0.2,3.9,0.4,5.6c0.2,1.5,0.6,3,0.7,4.5c0.2,3.1,0,6.3,0.2,9.4c0.5,6.3,1.2,12.6,1.8,18.9 C191.7,315.4,191.7,317.9,191.9,320.4 M209.4,267.3c2.1,0.3,4.2,0.6,6.6,1c-0.6-12-1.2-23.5-1.8-34.7c-9.9-0.8-19.4-1.6-28.9-2.4 c0,0.1,0,0.4,0,0.6c0.9,10.6,1.8,21.2,2.7,31.7c0,0.4,0.3,0.9,0.6,1.1c2.4,1.2,5,2,7.7,1.3c0.6-0.1,1.2-0.1,1.8,0 c1.6,0.2,3.2,0.5,4.9,0.7C205.2,266.8,207.3,267,209.4,267.3 M170.6,348c-0.1,0.6-0.3,1.2-0.2,1.8c0.3,2.9,0.6,5.9,1.1,8.8 c0.1,0.9,0.6,2.1,1.3,2.4c1.5,0.7,3.1,1,4.7,1.4c2.3,0.5,4.7,1,7,1.5c2.5,0.6,5.1,1.2,7.8,1.8c-0.2-3.9-0.4-7.3-0.6-10.8 c-0.1-1.8-0.6-3-2.6-3.4c-4.9-0.9-9.9-1.9-14.8-2.8C173.2,348.4,172,348.2,170.6,348 M167,312.5c0.8,8,1.6,16.1,2.4,24.1 c0.1,0.5,0.4,1.2,0.8,1.4c0.9,0.4,2,0.7,3,0.9c3.7,0.7,7.5,1.5,11.2,2.1c2,0.4,4.1,0.5,6.3,0.8c-0.1-1.2-0.3-2.1-0.3-3 c-0.2-3.3-0.3-6.7-0.6-10c-0.6-6.9-1.4-13.7-2-20.6c-0.6-6.3-0.9-12.5-1.4-18.8c-0.3-4.3-0.9-8.6-1.2-12.8 c-0.2-2.5-0.1-2.5-2.5-2.4c-0.3,0-0.6-0.1-0.9-0.1c-1.4-0.3-2.7-0.7-4.1-0.9c-2.8-0.5-5.5-0.9-8.3-1.4c-2-0.3-4-0.5-5.9-0.8 c-0.1,1.3-0.3,2.3-0.2,3.3c0.5,6.2,1.2,12.4,1.8,18.5C165.7,299.4,166.3,306,167,312.5 M182.2,264.7c0.3,0.4,1.1,0.3,1.9,0.5 c-0.1-1.2-0.1-2.2-0.2-3.1c-0.3-2.4-0.7-4.8-0.9-7.1c-0.7-7.6-1.2-15.3-1.9-22.9c0-0.5-0.4-1.2-0.7-1.3c-1.1-0.4-2.2-0.6-3.4-0.8 c-5.8-1.1-11.7-2.2-17.5-3.2c-0.8-0.2-1.3-0.2-1.2,0.9c0.6,5.5,1,11,1.7,16.5c0.6,4.6,1.5,9.2,2,13.8c0.2,1.7,0.9,2.7,2.3,3.1 c2.3,0.7,4.6,1.4,6.9,1.8c2.1,0.4,4.2,0.6,6.4,0.8C179.1,263.7,180.8,263.2,182.2,264.7 M162.7,345.6c-2-0.6-4-1.3-5.9-1.9 c0.2,2.3,0.2,4.4,0.5,6.4c0.2,1.2,0.5,2.7,1.3,3.5c2.6,2.8,5.7,4.8,9.6,5.7c-0.2-3.7-0.4-7.1-0.8-10.5c-0.1-0.8-0.9-1.7-1.6-2.2 C164.9,346.1,163.8,345.9,162.7,345.6 M148,267.8c-0.6-0.1-1.2-0.2-2-0.3c0.3,1.1,0.7,1.9,0.9,2.8c0.4,2.9,0.8,5.9,1.1,8.8 c0.6,5.1,1.2,10.2,1.9,15.3c0.6,4.9,1.2,9.9,1.9,14.8c0.5,3.8,1.2,7.6,1.7,11.5c0.5,3.6,1,7.2,1.6,10.8c0.1,0.7,0.6,1.4,1.2,1.8 c1.5,0.9,3,1.6,4.6,2.2c1.7,0.6,3.4,1,5.1,1.4c-0.2-2.9-0.3-5.4-0.5-7.9c-0.4-4.2-0.8-8.3-1.2-12.5c-0.7-6.7-1.4-13.3-2.1-20 c-0.4-3.9-0.8-7.7-1.2-11.6c-0.3-3.3-0.9-6.6-1-9.9c-0.1-4.4,0.1-4.4-4-5.3C153.3,269,150.6,268.4,148,267.8 M370.6,213.2 c-1.9-1.3-3.9-2.4-6-3.5c-5.8-3-12.2-4.1-18.4-5.5c-3.8-0.9-7.7-1.4-11.6-1.9c-3.8-0.3-8-0.8-12.6-1.5c-2.7-0.4-5.4-0.8-8.1-1.1 c-5.9-0.6-11.9-0.7-17.7-1.8c-54-4.2-109.5,3-114.9,3.8c-2.8,0.5-5.6,0.9-8.4,1.4c-3.1,0.5-6.2,1.1-9.2,1.7 c-2.2,0.5-4.2,1.2-6.4,1.7c-5.3,1.1-10.4,2.7-14.9,5.7c-1.9,1.2-3.6,2.8-3.1,5.6c0.9,6.3,1.7,12.5,2.5,18.8c0.8,6,1.6,12,2.4,17.9 c0.1,0.7,0.7,1.4,1.3,1.8c3.5,2.1,7.4,2.8,11.4,3.3c1.7,0.2,2.4-0.7,1.9-2.3c-0.5-1.5-1.1-3-1.4-4.6c-0.3-1.6-0.1-3.3-0.3-5 c-0.5-6.1-1.1-12.1-1.7-18.2c-0.1-1.3-0.3-2.6-0.4-3.7c-2.1-0.8-4-1.4-5.8-2.1c-2.9-1-5.6-2.1-7.5-4.7c-1-1.4-1.1-3.2,0-4.4 c2.8-2.9,6.3-4.4,10.1-5.5c3.8-1.1,7.7-2.1,11.6-2.9c4.7-1,9.5-1.9,14.3-2.6c3.9-0.6,7.8-0.9,11.7-1.2c8-0.7,16.1-1.5,24.1-2.2 c2.5-0.2,4.9-0.2,7.4-0.3c2.8-0.2,5.5-0.6,8.3-0.6c10.8-0.1,21.5-0.2,32.3-0.1c10.6,0.1,21.1,0.4,31.7,0.8 c6.7,0.3,13.4,0.9,20.1,1.5c5.3,0.5,10.5,1.1,15.8,1.7c3.1,0.4,6.2,0.8,9.3,1.3c3.2,0.5,6.4,1,9.6,1.8c4.1,0.9,8.1,1.9,12.1,3.1 c3.5,1,6.8,2.6,9.5,5c1.7,1.5,2,3.1,0.6,4.5c-1.6,1.6-3.5,3.1-5.5,4.2c-2.2,1.1-4.7,1.6-7.1,2.4c-0.4,0.1-0.9,0.6-0.9,1 c-0.4,3.6-0.8,7.2-1.2,10.8c-0.5,5.4-0.8,10.8-1.3,16.2c-0.2,2.1-0.6,4.2-0.9,6.3c0.4,0.1,0.6,0.2,0.8,0.1 c3.2-0.9,6.5-1.5,9.5-2.8c1.3-0.5,3.4-0.8,3.7-2.9c0.3-2.2,0.6-4.5,1-6.7c0.7-4.3,1.4-8.6,2-12.9c0.8-5.3,1.5-10.6,2.2-15.9 C372.9,216.3,372.4,214.4,370.6,213.2"></path> <path class="st0" d="M269.6,58.5c-10.2,2.3-17.2,7.3-22.2,14.1c-8.2,11-8.2,22.5-3.6,34.3c1.9,4.9,4.5,9.6,6.5,14.5 c6,14.9,4.3,29.3-5.9,42.8c-0.5,0.7-1.1,1.4-1.6,2.2c-0.4,0.6-1.1,1.2-0.4,1.8c0.7,0.7,1.6,0.1,2.2-0.2 c14.1-5.9,23.5-14.7,26-27.6c1.8-9.2-0.4-18-4.8-26.5c-3.9-7.4-6.9-14.9-7.7-22.9c-0.8-8.4,1.6-16.3,6.1-23.9 C266,64.3,267.9,61.4,269.6,58.5"></path> <path class="st0" d="M228.4,108.6c-10.2,2.3-17.2,7.3-22.2,14.1c-8.2,11-8.2,22.5-3.6,34.3c1.9,4.9,4.5,9.6,6.5,14.5 c6,14.9,4.3,29.3-5.9,42.8c-0.5,0.7-1.1,1.4-1.6,2.2c-0.4,0.6-1.1,1.2-0.4,1.8c0.7,0.7,1.6,0.1,2.2-0.2 c14.1-5.9,23.5-14.7,26-27.6c1.8-9.2-0.4-18-4.8-26.5c-3.9-7.4-6.9-14.9-7.7-22.9c-0.8-8.4,1.6-16.3,6.1-23.9 C224.8,114.4,226.6,111.5,228.4,108.6"></path> <path class="st0" d="M310.9,100.3c-10.2,2.3-17.2,7.3-22.2,14.1c-8.2,11-8.2,22.5-3.6,34.3c1.9,4.9,4.5,9.6,6.5,14.5 c6,14.9,4.3,29.3-5.9,42.8c-0.5,0.7-1.1,1.4-1.6,2.2c-0.4,0.6-1.1,1.2-0.4,1.8c0.7,0.7,1.6,0.1,2.2-0.2 c14.1-5.9,23.5-14.7,26-27.6c1.8-9.2-0.4-18-4.8-26.5c-3.9-7.4-6.9-14.9-7.7-22.9c-0.8-8.4,1.6-16.3,6.1-23.9 C307.3,106.1,309.1,103.2,310.9,100.3"></path> <g> <path class="st0" d="M261.8,93.3c0.9,5.8,3.2,11.9,7,19.2c0.8,1.6,1.6,3.2,2.2,4.8c3.8,0.4,7.5,0.9,11.3,1.6 c1.1-2.2,2.3-4.3,3.8-6.4c4.4-5.9,9.9-10.2,16.5-13C289.5,95.8,275.9,93.7,261.8,93.3z"></path> <path class="st0" d="M313.3,102.8l-1.2,1.9c-1.3,2-2.5,4-3.7,6.1c-2.7,4.5-4.5,8.9-5.3,13.3c60.6,19.9,104.5,77,104.5,144.1 c0,83.6-68,151.7-151.7,151.7c-83.6,0-151.7-68-151.7-151.7c0-63.7,39.5-118.3,95.2-140.7c1.1-2.3,2.3-4.5,3.9-6.7 c6-8,13.9-13.1,24.2-15.4l7.7-1.7l-5.9,9.5c-1.2,2-2.4,3.9-3.6,5.9c-0.1,0.2-0.2,0.3-0.3,0.5c6.2-1.3,12.6-2.1,19.1-2.6 c-0.2-0.4-0.4-0.8-0.5-1.1c-1.2-2.5-2.4-5-3.4-7.6c-1.9-4.9-3-9.5-3.2-14.1c-88,9.2-156.5,83.6-156.5,174 c0,96.6,78.4,175,175,175c96.6,0,175-78.4,175-175C431,191.5,381.8,126.5,313.3,102.8z"></path> </g> </g> </g> </svg> 