<?xml version="1.0" encoding="UTF-8"?> <!-- Generator: Adobe Illustrator 23.0.1, SVG Export Plug-In . SVG Version: 6.00 Build 0) --> <svg xmlns="http://www.w3.org/2000/svg" xmlns:xlink="http://www.w3.org/1999/xlink" x="0px" y="0px" viewBox="0 0 512 512" style="enable-background:new 0 0 512 512;" xml:space="preserve"> <style type="text/css"> .st0{fill:#A35D43;} </style> <g id="Слой_2"> </g> <g id="Слой_1"> <g> <path class="st0" d="M285.8,86.1c2.7,5.8,4.6,13.9,3,24.4c67.9,15,118.9,75.7,118.9,148.1c0,83.6-68,151.7-151.7,151.7 s-151.7-68-151.7-151.7c0-72.4,51-133.1,118.9-148.1c-1.6-10.5,0.3-18.6,3-24.4C143.8,100.2,81,172,81,258.5 c0,96.6,78.4,175,175,175s175-78.4,175-175C431,172,368.2,100.2,285.8,86.1z"></path> <path class="st0" d="M351.8,320.7c1.4-0.8,3.4-1,3.6-3.4c0.7-6.7,1.6-13.5,2.4-20.2c0.5-3.9,1-7.8,1.6-11.7 c0.4-2.9,0.9-5.7,1.3-8.6c0.4-3.2,0.9-6.3,1.2-9.5c0.5-3.8,0.8-7.7,1.3-11.6c0.2-1.8,0.7-3.6,1-5.7c-0.7,0.1-0.9,0.1-1.2,0.2 c-3.2,1.1-6.5,2.1-9.7,3.4c-1,0.4-2.6,1.2-2.7,2c-0.6,4.1-0.9,8.2-1.2,12.4c-0.4,4.9-0.9,9.8-1.3,14.7c-0.6,6.3-1.3,12.5-1.9,18.7 c-0.7,6.9-1.4,13.8-2.1,20.6c0,0.4,0,1.1,0.3,1.3c0.3,0.2,0.9,0,1.3-0.2C347.8,322.3,349.9,321.7,351.8,320.7 M349,239.8 c0.7-6.9,1.4-13.9,2.1-20.8c0.2-1.9,0.6-3.8,0.8-5.8c0.1-0.9,0-1.9,0-3.1c-1,0.4-1.8,0.9-2.7,1.1c-6.1,1.2-12.2,2.4-18.4,3.3 c-1.8,0.3-2.1,1-2.2,2.6c-0.4,6.7-0.8,13.4-1.3,20.2c-0.3,3.9-0.7,7.7-1.2,11.9c1.6-0.4,2.8-0.7,4-0.9c4.9-0.8,9.8-1.5,14.7-2.4 c3.8-0.7,3.8-0.8,4-4.9C348.9,240.7,348.9,240.3,349,239.8 M342.3,341.6c-0.1,1.5-0.3,2.9-0.5,4.7c4-1.5,7.8-3.2,9.9-6.6 c1.6-2.7,1.9-6.2,1.5-9.6c-3,1-6,2-8.9,3.1c-0.6,0.2-1.1,1.2-1.2,1.9C342.6,337.3,342.5,339.5,342.3,341.6 M328.7,326.9 c3.9-0.8,7.7-1.5,11.5-2.4c0.4-0.1,0.9-0.6,0.9-1c0.4-3.9,0.8-7.7,1.1-11.6c0.5-5.8,1-11.5,1.5-17.3c0.6-5.7,1.2-11.3,1.8-17 c0.5-5.2,0.9-10.4,1.4-15.6c0.2-2.2,0.5-4.4,0.8-6.7c-7.4,1.3-14.6,2.6-21.9,4c-2,22.9-3.9,45.9-6,69.2c1.1-0.1,2-0.2,2.8-0.4 C324.6,327.7,326.7,327.3,328.7,326.9 M324.4,234.5c0.4-4.8,0.9-9.6,1.3-14.5c0.1-1.6,0-3.2,0-5c-1.6,0.3-3.2,0.6-4.7,0.8 c-7.6,0.7-15.2,1.3-22.9,1.9c-1.1,0.1-1.5,0.6-1.5,1.7c-0.4,10.6-0.7,21.2-1.1,31.9c9.4,0.6,18.3,0.6,27-1.8c0.5-0.1,1-1,1.1-1.6 C323.9,243.5,324,239,324.4,234.5 M318.8,342.1c-0.1,3.4-0.4,6.8-0.6,10.6c0.4-0.1,1-0.2,1.6-0.3c2.3-0.5,4.7-1,7-1.6 c3.5-0.9,7-1.8,10.5-2.7c1.1-0.3,1.6-1.1,1.6-2.4c0.1-2.7,0.5-5.4,0.7-8.1c0.1-1,0-1.9,0-3.1c-1,0.3-1.8,0.7-2.7,0.8 c-5,1-10.1,2-15.1,3C318.9,338.8,318.9,338.8,318.8,342.1 M315.5,329.1c1.2-0.1,1.6-0.5,1.5-1.7c0-1.9,0.1-3.8,0.2-5.7 c0.6-7.1,1.3-14.3,1.9-21.4c0.6-8,1.1-16,1.7-24c0.4-5.5,0.8-10.9,1.2-16.6c-9.4,0.8-18.7,1.7-27.9,2.5c-1.3,23-2.6,45.9-3.9,69.3 c3.7-0.2,7-0.4,10.4-0.7C305.6,330.3,310.6,329.6,315.5,329.1 M292.9,250.6c0.1-10.1,0.2-20.3,0.4-30.4c0-1.6-0.4-2.1-1.9-2 c-11.2,0.4-22.4,0.6-33.8,0.9v34.1c0.4,0,0.7,0.1,1,0.1c8.1-0.2,16.2-0.5,24.3-0.7c2.9-0.1,5.7-0.2,8.6-0.3 C292.5,252.3,292.9,251.8,292.9,250.6 M289.4,346c0,3.3,0,6.6,0,9.9c1.2,0,2.2,0.1,3.2,0c5.8-0.7,11.6-1.4,17.4-2.2 c0.5-0.1,1,0,1.5-0.1c3.2-0.6,3.2-0.6,3.4-3.9c0-0.3,0.1-0.5,0.2-0.7c0.3-3.3,0.7-6.6,1.1-10.4c-2,0.4-3.4,0.8-4.8,1 c-6.3,0.6-12.7,1.1-19,1.6c-2.4,0.2-2.7,0.5-2.8,2.9C289.6,344.8,289.4,345.4,289.4,346 M257.5,343.9c0,3,0,6.1,0,9.1v4.2 c2.1,0,4,0.1,5.9,0c6.9-0.3,13.8-0.5,20.8-0.8c1.2-0.1,1.9-0.5,1.9-2c0-3.8,0.4-7.5,0.5-11.3c0-0.5-0.2-0.9-0.3-1.3 c-1.1,0.1-1.9,0.2-2.8,0.2c-8.2,0.1-16.4,0.3-24.6,0.4C257.7,342.4,257.5,342.9,257.5,343.9 M257.5,306.8c0,7.9,0,15.8,0,23.7 c0,1.7,0.2,2.7,2.2,2.2c1.3-0.3,2.7-0.1,4-0.2c7.3-0.2,14.6-0.3,21.9-0.4c1.1,0,1.9-0.3,1.9-1.7c0.3-7.9,0.7-15.7,1.1-23.6 c0.4-8,0.8-16,1.2-24c0-0.2,0.1-0.4,0.1-0.6c0.2-6.5,0.4-12.9,0.6-19.4c-11.3,0.3-21.8,0.6-32.5,0.9c-0.1,3.6-0.4,7.3-0.4,11 C257.4,285.5,257.5,296.1,257.5,306.8 M254.9,251.3c-0.1-3.3-0.4-6.6-0.4-9.9c0-7,0.1-14,0-21c0-0.5-0.7-1.4-1.1-1.4 c-1.2-0.2-2.5,0-3.8,0c-3.8,0-7.5-0.1-11.3-0.2c-6.3-0.2-12.6-0.5-19.2-0.7c0.6,11.7,1.2,23.1,1.7,34.5 c11.5,0.4,22.7,0.7,34.1,1.1C254.9,252.7,255,252,254.9,251.3 M225.3,344.8c0,0.4,0,0.8,0,1.1c0.1,3.1,0.2,6.2,0.4,9.2 c0,0.4,0.8,1.1,1.2,1.1c2,0.2,4,0.1,6,0.2c5.6,0.2,11.2,0.4,16.7,0.6c1.6,0.1,3.1,0,4.8,0v-12.1c0-2.2-0.4-2.6-2.5-2.7 c-7.9-0.1-15.8-0.2-23.7-0.4C225.1,341.9,225.1,341.8,225.3,344.8 M221.5,278.5c0.3,9.2,1.1,18.3,1.7,27.5 c0.5,8.2,0.9,16.4,1.3,24.5c0.1,1.1,0.5,1.5,1.6,1.5c8.8,0.1,17.5,0.2,26.3,0.5c2,0.1,2.2-0.8,2.2-2.4c0-8.9,0-17.9,0-26.8 c0-10,0-20.1,0-30.1c0-3,0-6,0-9.3c-10.9-0.4-21.6-0.8-32.5-1.2C221.8,268.2,221.3,273.4,221.5,278.5 M221.8,341.6 c-9-0.9-17.6-1.7-26.2-2.6c0.2,0.7,0.5,1.4,0.5,2c0.2,3.2,0.3,6.4,0.4,9.6c0.1,1.6,0.6,2.6,2.3,2.8c5,0.6,10,1.2,14.9,1.8 c1.6,0.2,3.1,0.4,4.7,0.6c1.4,0.1,2.8,0.2,4.5,0.4C222.5,350.9,222.1,346.1,221.8,341.6 M193,306.5c0.6,7,1.4,14,1.9,21 c0.1,1.2,0.4,1.6,1.6,1.7c4.2,0.4,8.3,1,12.5,1.4c3.8,0.4,7.6,0.6,11.5,0.8c1.1,0.1,1.4-0.4,1.2-1.5c-0.3-1.4-0.5-2.9-0.6-4.3 c-0.2-4.7-0.2-9.3-0.5-14c-0.5-8.9-1.2-17.8-1.7-26.8c-0.4-6.6-0.8-13.3-1.1-19.9c-0.1-1.5-0.7-1.9-2-2c-3-0.2-5.9-0.6-8.8-1 c-5.7-0.8-11.4-1.6-17.4-2.4c0.2,2.2,0.2,3.9,0.4,5.7c0.2,1.5,0.6,3.1,0.7,4.6c0.2,3.2,0,6.4,0.2,9.6c0.5,6.4,1.2,12.9,1.7,19.3 C192.7,301.3,192.7,303.9,193,306.5 M210.2,252.2c2.1,0.3,4.1,0.6,6.5,1c-0.6-12.3-1.2-24-1.8-35.4c-9.7-0.8-19-1.7-28.4-2.5 c0,0.2,0,0.4,0,0.6c0.9,10.8,1.8,21.6,2.7,32.4c0,0.4,0.3,1,0.6,1.1c2.4,1.2,4.9,2,7.6,1.3c0.6-0.2,1.2-0.1,1.8-0.1 c1.6,0.2,3.2,0.5,4.8,0.7C206,251.7,208.1,251.9,210.2,252.2 M172,334.6c-0.1,0.6-0.3,1.3-0.2,1.9c0.3,3,0.6,6,1.1,9 c0.1,0.9,0.6,2.1,1.3,2.4c1.4,0.7,3.1,1,4.6,1.4c2.3,0.6,4.6,1,6.9,1.5c2.5,0.6,5,1.2,7.7,1.8c-0.2-3.9-0.4-7.5-0.6-11 c-0.1-1.9-0.6-3.1-2.6-3.5c-4.9-0.9-9.7-1.9-14.6-2.9C174.5,335,173.4,334.8,172,334.6 M168.4,298.4c0.8,8.2,1.5,16.4,2.4,24.6 c0,0.5,0.4,1.3,0.8,1.5c0.9,0.4,1.9,0.7,2.9,0.9c3.7,0.8,7.3,1.5,11,2.2c2,0.4,4,0.5,6.2,0.8c-0.1-1.2-0.3-2.2-0.3-3.1 c-0.2-3.4-0.3-6.8-0.6-10.2c-0.6-7-1.4-14-2-21c-0.5-6.4-0.9-12.8-1.4-19.2c-0.3-4.4-0.8-8.7-1.2-13.1c-0.2-2.5-0.1-2.5-2.4-2.4 c-0.3,0-0.6-0.1-0.9-0.1c-1.3-0.3-2.7-0.7-4-0.9c-2.7-0.5-5.5-1-8.2-1.4c-2-0.3-3.9-0.6-5.8-0.8c-0.1,1.3-0.3,2.3-0.2,3.3 c0.5,6.3,1.1,12.6,1.7,18.9C167.2,285,167.8,291.7,168.4,298.4 M183.4,249.5c0.3,0.4,1.1,0.3,1.9,0.5c-0.1-1.2-0.1-2.2-0.2-3.2 c-0.3-2.4-0.7-4.8-0.9-7.3c-0.6-7.8-1.2-15.6-1.8-23.4c0-0.5-0.4-1.2-0.7-1.3c-1.1-0.4-2.2-0.6-3.3-0.8 c-5.7-1.1-11.5-2.2-17.2-3.3c-0.8-0.2-1.3-0.2-1.2,0.9c0.6,5.6,1,11.3,1.6,16.9c0.6,4.7,1.4,9.4,2,14.1c0.2,1.7,0.8,2.8,2.3,3.2 c2.3,0.7,4.5,1.4,6.8,1.9c2.1,0.4,4.2,0.6,6.2,0.8C180.4,248.6,182,248.1,183.4,249.5 M164.3,332.1c-2-0.7-3.9-1.3-5.8-2 c0.2,2.3,0.2,4.5,0.5,6.5c0.2,1.3,0.5,2.8,1.3,3.6c2.5,2.8,5.6,4.9,9.4,5.8c-0.2-3.7-0.4-7.2-0.8-10.7c-0.1-0.8-0.9-1.7-1.6-2.2 C166.4,332.6,165.3,332.5,164.3,332.1 M149.7,252.8c-0.6-0.1-1.1-0.2-2-0.3c0.3,1.1,0.7,2,0.9,2.9c0.4,3,0.8,6,1.1,9 c0.6,5.2,1.2,10.4,1.8,15.6c0.6,5,1.2,10.1,1.9,15.1c0.5,3.9,1.1,7.8,1.7,11.7c0.5,3.7,1,7.3,1.6,11c0.1,0.7,0.6,1.5,1.2,1.8 c1.4,0.9,3,1.6,4.5,2.2c1.6,0.6,3.4,1,5,1.4c-0.2-2.9-0.3-5.5-0.5-8c-0.4-4.3-0.8-8.5-1.2-12.8c-0.7-6.8-1.4-13.6-2.1-20.4 c-0.4-3.9-0.8-7.9-1.2-11.8c-0.3-3.3-0.9-6.7-1-10.1c-0.1-4.5,0.1-4.5-3.9-5.5C155,254,152.4,253.4,149.7,252.8 M264.5,102.4 c0.1,5-4.1,9.9-8.8,9.3c-4.8,0.3-8.8-4.5-8.7-9c0.1-3.9,3.5-8.4,7.6-9C259.8,93.1,264.3,97.3,264.5,102.4 M370.7,202.2 c0.3-2.1-0.2-4-1.9-5.2c-1.9-1.3-3.9-2.5-5.9-3.5c-5.7-3.1-12-4.2-18.1-5.7c-5-1.2-10.2-1.8-15.4-2.5c-5.2-0.8-10.4-1.4-15.7-2.1 c-6.5-0.8-13.2-0.7-19.7-2.2c-3.7-0.9-7.3-2-10.7-3.9c-4.7-2.8-7.2-7.4-7.9-12.7c-1.1-7.1-0.2-14.2,1.2-21.2 c0.8-3.7,1.3-7.5,2-11.3c0.4-2.3,0.9-4.5,1.4-6.8c0.6-2.4,1.3-4.8,1.8-7.2c0.6-2.9,0.8-5.9,1.4-8.9c1.2-6.3,0.3-12.3-2.8-17.6 c-4.4-7.8-11.5-11.8-20-12.8c-4.4-0.5-8.8-0.1-13.3,0.9c-5.1,1.2-9.1,3.8-12.7,7.2c-4,3.7-5.6,9-6.5,14.3c-0.8,4.7,0.5,9.4,1.2,14 c0.7,4.4,2,8.8,3,13.1c0.4,1.8,0.8,3.7,1.1,5.5c0.5,2.8,0.9,5.5,1.4,8.3c0.5,3,1.3,6,1.6,9c0.3,3.5,0.5,7.1,0.3,10.6 c-0.1,2.3-0.5,4.7-1.3,6.8c-2,5.2-5.9,8.6-11,10.5c-4,1.5-8,2.6-12.3,2.9c-5.1,0.4-10.2,0.9-15.2,1.4c-3.6,0.4-7.2,0.8-10.8,1.3 c-3.9,0.6-7.8,1.3-11.6,2c-3,0.5-6.1,1.1-9.1,1.7c-2.1,0.5-4.2,1.2-6.3,1.7c-5.2,1.1-10.2,2.8-14.6,5.8c-1.8,1.2-3.5,2.8-3.1,5.7 c0.9,6.4,1.6,12.8,2.4,19.2c0.8,6.1,1.5,12.2,2.4,18.3c0.1,0.7,0.7,1.4,1.2,1.8c3.4,2.1,7.3,2.9,11.2,3.4c1.7,0.2,2.3-0.7,1.8-2.4 c-0.5-1.5-1.1-3.1-1.3-4.7c-0.3-1.7-0.1-3.4-0.3-5.1c-0.5-6.2-1.1-12.4-1.7-18.6c-0.1-1.4-0.3-2.7-0.4-3.8 c-2.1-0.8-3.9-1.5-5.7-2.1c-2.8-1-5.5-2.1-7.4-4.8c-1-1.4-1.1-3.3,0-4.5c2.7-3,6.2-4.5,9.9-5.6c3.8-1.1,7.6-2.2,11.4-3 c4.7-1,9.4-1.9,14.1-2.7c3.8-0.6,7.7-0.9,11.6-1.2c7.9-0.8,15.8-1.5,23.7-2.2c2.4-0.2,4.9-0.2,7.3-0.3c2.7-0.2,5.4-0.6,8.2-0.6 c10.6-0.1,21.2-0.2,31.7-0.1c10.4,0.1,20.8,0.4,31.1,0.8c6.6,0.3,13.2,0.9,19.8,1.5c5.2,0.5,10.3,1.1,15.5,1.8 c3.1,0.4,6.1,0.8,9.2,1.3c3.2,0.5,6.3,1.1,9.4,1.8c4,0.9,8,2,11.9,3.1c3.4,1,6.7,2.6,9.4,5.1c1.7,1.6,2,3.1,0.6,4.6 c-1.6,1.6-3.4,3.2-5.4,4.3c-2.2,1.1-4.7,1.6-7,2.4c-0.4,0.1-0.8,0.6-0.9,1c-0.4,3.7-0.8,7.4-1.1,11.1c-0.5,5.5-0.8,11-1.3,16.5 c-0.2,2.1-0.6,4.3-0.9,6.4c0.4,0.1,0.6,0.2,0.8,0.1c3.1-0.9,6.3-1.6,9.3-2.9c1.3-0.6,3.4-0.8,3.7-2.9c0.3-2.3,0.6-4.6,1-6.9 c0.6-4.4,1.4-8.8,2-13.2C369.2,213,370,207.6,370.7,202.2"></path> </g> </g> </svg> 