<?xml version="1.0" encoding="UTF-8"?> <!-- Generator: Adobe Illustrator 23.0.1, SVG Export Plug-In . SVG Version: 6.00 Build 0) --> <svg xmlns="http://www.w3.org/2000/svg" xmlns:xlink="http://www.w3.org/1999/xlink" x="0px" y="0px" viewBox="0 0 512 512" style="enable-background:new 0 0 512 512;" xml:space="preserve"> <style type="text/css"> .st0{fill:#A35D43;} </style> <g id="Слой_2"> </g> <g id="Слой_1"> <g> <g> <path class="st0" d="M346,302.7c-2.2,0-4.2,0.3-6.2,0.9c1.8-38.8,2.8-129.6-8.5-144.7c-12.6-16.8-27.2-15.5-31.8-14.6 c-2.5-14.1-6-25-10.6-30.3c-17.4-20-71.6-12.7-72.5-12.4c-4.3,1.6-6.4,6.3-4.9,10.5c1.5,4.3,6.3,6.6,10.6,5.1 c1.1-0.4,44.8-3.4,54.3,7.6c13.4,15.5,14.7,128.7,11.3,204.2c0,0.6,0,1.3,0.1,1.9c-5.8-5.1-13.5-8.2-21.8-8.2 c-4,0-7.9,0.8-11.5,2.1c1.7-40.4,6.1-185.8-15.6-210.9c-17.4-20-74.9-12.7-75.8-12.4c-4.3,1.6-6.4,6.3-4.9,10.5 c1.5,4.3,6.3,6.6,10.6,5.1c1.1-0.4,48.1-3.4,57.6,7.6c13.4,15.5,14.7,128.1,11.3,203.6c-5.1-7.5-13.6-12.4-23.4-12.4 c-2.4,0-4.7,0.3-6.9,0.9c-3.6-8.3-11.8-14.2-21.5-14.2c-12.9,0-23.3,10.4-23.3,23.3c0,8.8,4.8,16.4,12,20.4 c-3.6-3.6-5.8-8.5-5.8-14c0-11,8.9-19.8,19.8-19.8c5.5,0,10.5,2.3,14.1,5.9c-9.9,4.4-16.8,14.3-16.8,25.9 c0,13.7,9.8,25.2,22.7,27.8c-7.1-4.2-11.8-11.9-11.8-20.7c0-8.7,4.6-16.3,11.6-20.5c0,0.3,0.1,0.7,0.1,1c0.1-0.4,0.2-0.8,0.2-1.2 c3.6-2.1,7.7-3.3,12.2-3.3c7.4,0,14,3.4,18.4,8.6c-4.2,5.6-6.7,12.5-6.7,20c0,8.7,3.4,16.7,8.9,22.6c-2.5-4.2-3.9-9.1-3.9-14.3 c0-15.6,12.7-28.3,28.3-28.3s28.3,12.7,28.3,28.3c0,5.2-1.4,10.1-3.9,14.3c5.5-5.9,8.9-13.9,8.9-22.6c0-7.5-2.5-14.4-6.7-20 c4.4-5.3,11-8.6,18.4-8.6c4.5,0,8.6,1.2,12.2,3.3c0.1,0.4,0.1,0.8,0.2,1.2c0-0.3,0.1-0.7,0.1-1c6.9,4.2,11.6,11.8,11.6,20.5 c0,8.8-4.7,16.5-11.8,20.7c13-2.6,22.7-14,22.7-27.8c0-11.5-6.9-21.4-16.8-25.9c3.6-3.6,8.6-5.9,14.1-5.9 c11,0,19.8,8.9,19.8,19.8c0,5.5-2.2,10.4-5.8,14c7.2-4,12-11.6,12-20.4C369.3,313.1,358.9,302.7,346,302.7z M304.8,319.1 c1.2-32.8,3.2-109-3-159.7c0.2-0.1,0.5-0.1,0.7-0.1c0.9-0.2,8.6-1.8,16.5,8.8c6.2,8.5,8.9,90,4.8,145.3c-0.1,1.3,0.2,2.5,0.7,3.6 c-2.2-0.5-4.5-0.9-6.9-0.9C313,316,308.6,317.1,304.8,319.1z"></path> <path class="st0" d="M135.1,140.6c0.4-0.1,44.1-2.9,55,7.9c7.7,8,8.3,79,7.6,134c-0.1,4.6,3.6,8.4,8.2,8.5c0,0,0.1,0,0.1,0 c4.5,0,8.3-3.7,8.3-8.2c0.4-28.6,3.8-129.8-12.4-146c-18.3-18.3-71-12.3-71.8-12c-4.3,1.4-6.6,6-5.3,10.3 C126.1,139.4,130.7,141.9,135.1,140.6z"></path> </g> <path class="st0" d="M431,255.9c0-2.8-0.1-5.6-0.2-8.3c0-0.6-0.1-1.2-0.1-1.7c-0.1-2.3-0.3-4.6-0.5-6.8c-0.1-0.6-0.1-1.1-0.2-1.6 c-0.3-2.6-0.6-5.1-1-7.7c0-0.1,0-0.3-0.1-0.4c-9.9-64.8-55.3-117.8-115.7-138.7l-0.1,0.1c-3.6-1.2-7.2-2.4-10.8-3.4 c0.1,0,0.1-0.1,0.2-0.1c-13.1-3.6-26.7-5.7-40.8-6.2c0,0,0,0.1,0,0.1c-1.9-0.1-3.9-0.1-5.8-0.1c-6.2,0-12.4,0.3-18.4,1 c0,0,0-0.1,0-0.1c-16.1,1.7-31.6,5.6-46.1,11.4h18.3c0.1,0,0.3,0,0.4,0c0.1,0,0.2,0,0.3,0h32l0,0c0.3,0,0.6,0,1,0 c8.9,0,38.6,2.8,50.2,15.9c58.1,14.9,102.9,63.5,112.2,123.7c0,0.1,0,0.3,0.1,0.4c0.3,2.2,0.6,4.4,0.8,6.7c0,0.4,0.1,0.9,0.1,1.3 c0.2,2,0.3,4,0.5,6.1c0,0.5,0.1,0.9,0.1,1.4c0.1,2.4,0.2,4.9,0.2,7.3c0,2.5-0.1,4.9-0.2,7.3c0,0.5-0.1,0.9-0.1,1.4 c-0.1,2-0.3,4.1-0.5,6.1c0,0.4-0.1,0.9-0.1,1.3c-0.2,2.2-0.5,4.4-0.8,6.7c0,0.1,0,0.3-0.1,0.4c-11.2,72.7-74.1,128.5-149.9,128.5 c-78.3,0-142.9-59.6-150.8-135.8c0-0.3-0.1-0.7-0.1-1c-0.2-2.1-0.4-4.1-0.5-6.2c0-0.5-0.1-0.9-0.1-1.4c-0.1-2.4-0.2-4.8-0.2-7.2 c0-2.4,0.1-4.8,0.2-7.2c0-0.5,0.1-0.9,0.1-1.4c0.1-2.1,0.3-4.1,0.5-6.2c0-0.3,0.1-0.7,0.1-1c4-38.5,22.6-72.8,50-97.3 c-0.1-0.1-0.1-0.1-0.2-0.2h-32.4c-15.1,17.7-26.7,38.5-33.8,61.3c0,0.1,0,0.1-0.1,0.2c-0.8,2.6-1.6,5.3-2.2,7.9 c0,0.2-0.1,0.3-0.1,0.5c-0.7,2.6-1.3,5.2-1.8,7.8c-0.1,0.2-0.1,0.5-0.2,0.7c-0.5,2.6-1,5.1-1.4,7.7c0,0.3-0.1,0.6-0.1,0.9 c-0.4,2.6-0.7,5.2-1,7.8c0,0.3-0.1,0.6-0.1,0.9c-0.3,2.7-0.5,5.5-0.6,8.3c0,0.2,0,0.4,0,0.5c-0.1,2.9-0.2,5.9-0.2,8.8 c0,0,0,0,0,0.1s0,0,0,0.1c0,3,0.1,5.9,0.2,8.8c0,0.2,0,0.4,0,0.5c0.1,2.8,0.4,5.5,0.6,8.3c0,0.3,0.1,0.6,0.1,0.9 c0.3,2.6,0.6,5.2,1,7.8c0,0.3,0.1,0.6,0.1,0.9c0.4,2.6,0.9,5.2,1.4,7.7c0,0.2,0.1,0.5,0.2,0.7c0.5,2.6,1.1,5.2,1.8,7.8 c0,0.2,0.1,0.3,0.1,0.5c0.7,2.7,1.4,5.3,2.2,7.9c0,0.1,0,0.1,0.1,0.2c20.4,65.6,78.3,114.7,148.6,122c0,0,0-0.1,0-0.1 c6.1,0.6,12.2,1,18.4,1c1.9,0,3.9-0.1,5.8-0.1c0,0,0,0.1,0,0.1c14.1-0.5,27.7-2.6,40.8-6.2c-0.1,0-0.1-0.1-0.2-0.1 c3.7-1,7.3-2.1,10.8-3.4l0.1,0.1c60.4-20.9,105.8-74,115.7-138.7c0-0.1,0-0.3,0.1-0.4c0.4-2.5,0.7-5.1,1-7.7 c0.1-0.5,0.1-1.1,0.2-1.6c0.2-2.3,0.4-4.5,0.5-6.8c0-0.6,0.1-1.2,0.1-1.7c0.1-2.8,0.2-5.5,0.2-8.3C431,256,431,256,431,255.9 C431,256,431,256,431,255.9z"></path> </g> </g> </svg> 